<svg width="398" height="158" xmlns="http://www.w3.org/2000/svg">

 <metadata id="metadata7">image/svg+xml</metadata>
 <g>
  <title>background</title>
  <rect fill="none" id="canvas_background" height="770" width="1026" y="-1" x="-1"/>
 </g>
 <g>
  <title>Layer 1</title>
  <g id="g2495">
   <path fill="#000000" stroke-width="0" d="m34.409429,19.570907l0,0.05315l0,0.04252l0,0.05315l0,0.05315l0,0.05315l0,0.06378l0,0.05315l-0.106299,0.05315l0,0.127559l0,0.116929l0,0.116929l-0.106299,0.116929l0,0.05315l0,0.06378l0,0.05315l0,0.05315l0,0.04252l0,0.05315l0,0.04252l-0.106299,0.04252l0,0.04252l0,0.03189l0,0.03189l0,0.03189l0,0.03189l0,0.02126l0,0l0,0.01063l0,0.01063l0,0c0,0.818504 0.637795,1.190551 1.275591,1.190551c0.637795,0 1.275591,-0.488976 1.38189,-0.818504c0.212598,-0.329528 0.531496,-1.520079 0.744094,-2.296063c0.106299,-0.701575 0.531496,-2.412992 0.744094,-3.337795c0.318898,-0.807874 0.531496,-1.626378 0.637795,-2.476772c0.425197,-1.520079 0.531496,-1.817716 1.594488,-3.337795c1.062992,-1.488189 2.763779,-3.412205 5.527559,-3.412205c2.232283,0 2.232283,1.892126 2.232283,2.593701c0,2.221653 -1.594488,6.335433 -2.232283,7.898031c-0.318898,1.031102 -0.531496,1.37126 -0.531496,1.998425c0,1.966535 1.594488,3.188976 3.507874,3.188976c3.720472,0 5.31496,-5.112992 5.31496,-5.665748c0,-0.488976 -0.425197,-0.488976 -0.531496,-0.488976c-0.531496,0 -0.531496,0.223228 -0.744094,0.627165c-0.850394,2.965748 -2.444882,4.485827 -3.933071,4.485827c-0.744094,0 -0.850394,-0.520866 -0.850394,-1.29685c0,-0.850394 0.106299,-1.32874 0.850394,-2.997638c0.425197,-1.148031 1.913386,-5.081102 1.913386,-7.153937c0,-3.603543 -2.870079,-4.230709 -4.783464,-4.230709c-3.082677,0 -5.208661,1.892126 -6.271653,3.380315c-0.318898,-2.561811 -2.444882,-3.380315 -3.933071,-3.380315c-1.594488,0 -2.551181,1.148031 -2.976378,1.998425c-0.850394,1.38189 -1.38189,3.497244 -1.38189,3.677953c0,0.478346 0.531496,0.478346 0.637795,0.478346c0.531496,0 0.637795,-0.116929 0.850394,-1.116142c0.531496,-2.179134 1.275591,-3.99685 2.65748,-3.99685c0.956693,0 1.275591,0.818504 1.275591,1.817716c0,0.701575 -0.318898,2.072835 -0.637795,3.072047c-0.212598,0.999213 -0.637795,2.519291 -0.744094,3.337795l-1.275591,4.740945z" id="path2499"/>
   <path fill="#000000" stroke-width="0" d="m71.507854,111.98744l6.377953,-16.944094l-1.38189,0c-2.019685,5.506299 -7.653543,9.109842 -13.712598,10.693701c-1.169291,0.265748 -6.271653,1.647638 -16.476378,1.647638l-31.889763,0l26.8937,-31.613385c0.425197,-0.425197 0.531496,-0.584646 0.531496,-0.850394c0,-0.106299 0,-0.265748 -0.425197,-0.797244l-24.661417,-33.728739l29.019684,0c7.122047,0 11.905512,0.744094 12.437008,0.850394c2.763779,0.425197 7.440945,1.31811 11.586614,3.97559c1.38189,0.839764 4.996063,3.220866 6.69685,7.515354l1.38189,0l-6.377953,-14.881889l-62.610235,0c-1.275591,0 -1.275591,0.05315 -1.488189,0.372047c0,0.159449 0,1.169291 0,1.743307l27.956692,38.342125l-27.425196,32.134251c-0.531496,0.637795 -0.531496,0.903543 -0.531496,0.956693c0,0.584646 0.531496,0.584646 1.488189,0.584646l62.610235,0z" id="path2501"/>
   <path fill="#000000" stroke-width="0" d="m16.019666,126.986259l0,-0.01063l0,0l0,0l0,-0.01063l0,-0.01063l0,0l0,-0.01063l0,0l0,-0.02126l0,-0.02126l0,-0.02126l0,-0.01063l0.106299,-0.02126l0,-0.03189l0,-0.02126l0,-0.02126l0,-0.02126l0,-0.03189l0,-0.04252l0,-0.03189l0,-0.02126l0,-0.03189l0,-0.02126l0,-0.02126l0,-0.02126l0,-0.02126l0,-0.02126l0,-0.02126l0,-0.01063l0,-0.01063l0,-0.01063l0,0l0,-0.01063l0,-0.01063l0,0l0,-0.01063l0,0l0,0l0,-0.01063l0,0l0.106299,0c0,-0.191339 -0.212598,-0.520866 -0.637795,-0.520866c-0.744094,0 -3.826772,0.297638 -4.783464,0.372047c-0.212598,0.03189 -0.744094,0.074409 -0.744094,0.850394c0,0.520866 0.531496,0.520866 0.956693,0.520866c1.700787,0 1.700787,0.255118 1.700787,0.552756c0,0.265748 0,0.488976 -0.106299,0.818504l-5.208661,20.972834c-0.212598,0.669685 -0.212598,0.744094 -0.212598,0.818504c0,0.563386 0.425197,1.190551 1.275591,1.190551c0.956693,0 1.488189,-0.744094 1.700787,-1.562598c0.106299,-0.138189 1.700787,-6.66496 1.807087,-7.185827c2.65748,0.255118 4.783464,1.105512 4.783464,3.040157c0,0.180709 0,0.372047 -0.106299,0.744094c-0.106299,0.552756 -0.106299,0.744094 -0.106299,1.148031c0,2.62559 2.125984,3.816142 3.933071,3.816142c3.507874,0 4.677165,-5.633858 4.677165,-5.665748c0,-0.488976 -0.531496,-0.488976 -0.637795,-0.488976c-0.531496,0 -0.531496,0.180709 -0.744094,0.892913c-0.425197,1.594488 -1.38189,4.220079 -3.188976,4.220079c-1.062992,0 -1.38189,-0.924803 -1.38189,-1.924016c0,-0.637795 0,-0.701575 0.318898,-1.668898c0,-0.106299 0.106299,-0.744094 0.106299,-1.148031c0,-3.305905 -4.358268,-3.816142 -5.952756,-3.933071c1.062992,-0.659055 2.444882,-1.892126 3.082677,-2.444882c1.913386,-1.775197 3.720472,-3.518504 5.846457,-3.518504c0.425197,0 0.850394,0.106299 1.169291,0.478346c-1.594488,0.265748 -1.913386,1.520079 -1.913386,2.072835c0,0.818504 0.637795,1.38189 1.488189,1.38189c0.956693,0 2.125984,-0.818504 2.125984,-2.381102c0,-1.222441 -0.956693,-2.593701 -2.870079,-2.593701c-2.125984,0 -4.03937,1.520079 -5.952756,3.263386c-1.594488,1.488189 -2.763779,2.63622 -4.251968,3.263386l3.614173,-14.78622z" id="path2503"/>
   <path fill="#000000" stroke-width="0" d="m56.307066,139.146888l0,-0.01063l0.106299,0l0,0l0.106299,0l0.106299,0l0.106299,0l0,-0.01063l0.106299,0l0,-0.01063l0.106299,-0.01063l0,-0.01063l0.106299,-0.01063l0,-0.02126l0.106299,-0.01063l0,-0.02126l0.106299,-0.03189l0,-0.02126l0.106299,-0.03189l0,-0.03189l0.106299,-0.03189l0,-0.04252l0,-0.04252l0.106299,-0.02126l0,-0.02126l0,-0.03189l0,-0.02126l0,-0.03189l0,-0.02126l0,-0.03189l0.106299,-0.03189l0,-0.03189l0,-0.03189l0,-0.03189l0,-0.03189l0,-0.04252l0,-0.03189l0,-0.04252l0,-0.04252l0,-0.04252l0,-0.04252c0,-0.892913 -0.850394,-0.892913 -1.38189,-0.892913l-24.555118,0c-0.425197,0 -1.38189,0 -1.38189,0.892913c0,0.935433 0.850394,0.935433 1.488189,0.935433l24.448818,0z" id="path2505"/>
   <path fill="#000000" stroke-width="0" d="m56.307066,147.300038l0.106299,0l0,0l0,0l0.106299,0l0,-0.01063l0.106299,0l0.106299,0l0,-0.01063l0.106299,0l0,-0.01063l0.106299,-0.01063l0,-0.01063l0.106299,-0.01063l0,-0.01063l0.106299,-0.02126l0,-0.02126l0.106299,-0.02126l0,-0.02126l0.106299,-0.03189l0,-0.03189l0.106299,-0.03189l0,-0.04252l0,-0.03189l0.106299,-0.03189l0,-0.02126l0,-0.02126l0,-0.02126l0,-0.03189l0,-0.02126l0,-0.03189l0.106299,-0.03189l0,-0.03189l0,-0.03189l0,-0.03189l0,-0.03189l0,-0.03189l0,-0.04252l0,-0.03189l0,-0.04252l0,-0.03189l0,-0.04252c0,-0.924803 -0.850394,-0.924803 -1.38189,-0.924803l-24.448818,0c-0.637795,0 -1.488189,0 -1.488189,0.924803c0,0.892913 0.956693,0.892913 1.38189,0.892913l24.555118,0z" id="path2507"/>
   <path fill="#000000" stroke-width="0" d="m78.842499,139.774054l0,-0.754724l0,-0.722835l-0.106299,-0.701575l0,-0.680315l-0.106299,-0.659055l0,-0.627165l-0.106299,-0.616535l-0.106299,-0.595276l-0.212598,-0.584646l-0.106299,-0.563386l-0.212598,-0.542126l-0.212598,-0.531496l-0.212598,-0.520866l-0.212598,-0.510236l-0.318898,-0.499606l-0.106299,-0.255118l-0.212598,-0.244488c-1.062992,-1.700787 -3.401575,-3.178346 -6.377953,-3.178346l0,1.031102c2.019685,0 3.933071,1.222441 4.570866,3.380315c0.637795,1.998425 0.637795,4.666535 0.637795,7.887401c0,2.74252 0,5.495669 -0.425197,7.823622c-0.744094,3.369685 -3.295276,4.188189 -4.783464,4.188189l0,0c-1.700787,0 -3.933071,-0.999213 -4.677165,-4.03937c-0.531496,-2.189764 -0.531496,-5.229921 -0.531496,-7.972441c0,-2.7 0,-5.516929 0.531496,-7.557874c0.744094,-2.933858 3.188976,-3.709842 4.677165,-3.709842l0,-1.031102c-8.610236,0 -8.610236,10.119685 -8.610236,12.787795c0,2.66811 0,12.564567 8.610236,12.564567c8.610236,0 8.610236,-9.896456 8.610236,-12.564567z" id="path2509"/>
   <path fill="#000000" stroke-width="0" d="m104.673207,51.652009l0,-0.01063l0,0l0,-0.01063l0,-0.01063l0,-0.01063l0,-0.01063l0,-0.02126l0,-0.02126l0,-0.02126l0,-0.02126l0,-0.02126l0,-0.02126l0,-0.03189l0,-0.02126l-0.106299,-0.03189l0,-0.02126l0,-0.02126l0,-0.03189l0,-0.02126l0,-0.03189l-0.106299,-0.02126l0,-0.01063l0,-0.01063l0,-0.01063l0,-0.01063l0,-0.01063l0,-0.01063l-0.106299,-0.01063l0,-0.01063l0,-0.01063l0,-0.01063l0,-0.01063l0,0l-0.106299,-0.01063l0,-0.01063l0,0l0,-0.01063l-0.106299,0l0,-0.01063l0,0l0,0l-0.106299,-0.01063l0,0l0,0l0,0c-1.275591,0 -5.102362,0.425197 -6.484252,0.531496c-0.425197,0.05315 -1.062992,0.106299 -1.062992,1.062992c0,0.627165 0.531496,0.627165 1.275591,0.627165c2.551181,0 2.65748,0.372047 2.65748,0.903543l-0.106299,1.052362l-7.759842,30.507873c-0.212598,0.733465 -0.212598,0.850394 -0.212598,1.158661c0,1.222441 1.062992,1.488189 1.594488,1.488189c0.637795,0 1.488189,-0.478346 1.807087,-1.116142c0.212598,-0.478346 2.65748,-10.268504 2.976378,-11.597244c1.807087,0.159449 6.059055,1.009842 6.059055,4.507087c0,0.372047 0,0.584646 -0.106299,1.105512c-0.106299,0.637795 -0.212598,1.275591 -0.212598,1.860236c0,3.114567 2.125984,5.240551 4.889764,5.240551c1.594488,0 2.976378,-0.850394 4.145669,-2.806299c1.38189,-2.338583 1.913386,-5.240551 1.913386,-5.34685c0,-0.531496 -0.425197,-0.531496 -0.637795,-0.531496c-0.531496,0 -0.531496,0.212598 -0.744094,0.946063c-1.062992,3.869291 -2.232283,6.569291 -4.570866,6.569291c-1.062992,0 -1.700787,-0.584646 -1.700787,-2.487402c0,-0.892913 0.212598,-2.115354 0.425197,-2.965748c0.212598,-0.903543 0.212598,-1.116142 0.212598,-1.637008c0,-3.444094 -3.401575,-4.985433 -7.866142,-5.559449c1.700787,-0.956693 3.401575,-2.65748 4.570866,-3.922441c2.551181,-2.806299 4.996063,-5.081102 7.547244,-5.081102c0.318898,0 0.425197,0 0.531496,0.05315c0.637795,0.106299 0.637795,0.106299 1.062992,0.425197c0.106299,0.05315 0.106299,0.095669 0.212598,0.212598c-2.551181,0.159449 -2.976378,2.221653 -2.976378,2.848819c0,0.850394 0.531496,1.860236 2.019685,1.860236c1.38189,0 2.870079,-1.169291 2.870079,-3.231496c0,-1.594488 -1.169291,-3.337795 -3.614173,-3.337795c-1.488189,0 -3.933071,0.425197 -7.759842,4.666535c-1.807087,2.009055 -3.826772,4.124409 -5.846457,4.921653l5.527559,-22.344094z" id="path2511"/>
   <path fill="#000000" stroke-width="0" d="m170.472418,70.498858l0.212598,0l0.106299,0l0.212598,-0.01063l0,0l0.106299,0l0.106299,-0.01063l0,-0.01063l0.106299,-0.01063l0.106299,-0.01063l0.106299,-0.02126l0,-0.01063l0.106299,-0.02126l0,-0.02126l0.106299,-0.03189l0.106299,-0.03189l0,-0.03189l0.106299,-0.03189l0,-0.04252l0.106299,-0.04252l0,-0.05315l0.106299,-0.05315l0,-0.03189l0,-0.02126l0,-0.03189l0,-0.03189l0,-0.03189l0,-0.04252l0.106299,-0.03189l0,-0.04252l0,-0.03189l0,-0.04252l0,-0.04252l0,-0.04252l0,-0.04252l0,-0.04252l0,-0.05315l0,-0.05315c0,-1.052362 -0.956693,-1.052362 -1.700787,-1.052362l-31.783464,0c-0.744094,0 -1.700787,0 -1.700787,1.052362c0,1.062992 0.956693,1.062992 1.807087,1.062992l31.570865,0z" id="path2513"/>
   <path fill="#000000" stroke-width="0" d="m170.578717,80.777992l0.106299,-0.01063l0.106299,0l0.212598,0l0.106299,-0.01063l0,0l0.106299,-0.01063l0.106299,-0.01063l0,-0.01063l0.106299,-0.01063l0.106299,-0.01063l0,-0.02126l0.106299,-0.02126l0.106299,-0.02126l0,-0.02126l0.106299,-0.03189l0,-0.03189l0.106299,-0.04252l0,-0.04252l0.106299,-0.04252l0,-0.04252l0,-0.03189l0.106299,-0.03189l0,-0.02126l0,-0.03189l0,-0.03189l0,-0.03189l0,-0.03189l0,-0.03189l0.106299,-0.04252l0,-0.03189l0,-0.04252l0,-0.04252l0,-0.04252l0,-0.04252l0,-0.04252l0,-0.04252l0,-0.05315l0,-0.04252c0,-1.062992 -0.956693,-1.062992 -1.807087,-1.062992l-31.570865,0c-0.850394,0 -1.807087,0 -1.807087,1.062992c0,1.062992 0.956693,1.062992 1.700787,1.062992l31.783464,0z" id="path2515"/>
   <path fill="#000000" stroke-width="0" d="m200.448795,48.548072l0,0.074409l0,0.085039l-0.106299,0.074409l0,0.085039l0,0.170079l-0.106299,0.170079l0,0.170079l0,0.170079l-0.106299,0.170079l0,0.170079l0,0.085039l0,0.074409l-0.106299,0.074409l0,0.074409l0,0.074409l0,0.074409l0,0.06378l0,0.06378l0,0.05315l0,0.06378l0,0.05315l-0.106299,0.04252l0,0.04252l0,0.04252l0,0.03189l0,0.02126c0,0.956693 0.744094,1.435039 1.594488,1.435039c0.637795,0 1.594488,-0.425197 1.913386,-1.488189c0.106299,-0.106299 0.744094,-2.593701 1.062992,-3.911811c0.318898,-1.594488 0.744094,-3.178346 1.169291,-4.772835c0.318898,-1.158661 0.637795,-2.327953 0.850394,-3.550394c0.212598,-0.892913 0.637795,-2.423622 0.744094,-2.63622c0.744094,-1.647638 3.614173,-6.462992 8.610236,-6.462992c2.338583,0 2.870079,1.955905 2.870079,3.709842c0,3.274016 -2.65748,10.055905 -3.507874,12.330708c-0.425197,1.222441 -0.531496,1.849606 -0.531496,2.434252c0,2.487402 1.913386,4.347638 4.358268,4.347638c4.996063,0 6.909449,-7.738582 6.909449,-8.153149c0,-0.531496 -0.425197,-0.531496 -0.637795,-0.531496c-0.531496,0 -0.531496,0.159449 -0.744094,0.946063c-1.062992,3.603543 -2.763779,6.569291 -5.42126,6.569291c-0.850394,0 -1.275591,-0.531496 -1.275591,-1.743307c0,-1.32874 0.531496,-2.593701 0.956693,-3.762992c1.062992,-2.806299 3.295276,-8.631496 3.295276,-11.650393c0,-3.539764 -2.338583,-5.665748 -6.165354,-5.665748c-4.677165,0 -7.334645,3.390945 -8.185039,4.613386c-0.318898,-2.965748 -2.444882,-4.613386 -4.889764,-4.613386c-2.444882,0 -3.507874,2.072835 -4.03937,3.018898c-0.850394,1.807087 -1.594488,4.921653 -1.594488,5.134252c0,0.531496 0.531496,0.531496 0.637795,0.531496c0.531496,0 0.637795,-0.05315 0.956693,-1.211811c0.850394,-3.762992 1.913386,-6.303543 3.826772,-6.303543c1.062992,0 1.700787,0.690945 1.700787,2.434252c0,1.105512 -0.212598,1.690157 -0.850394,4.443307l-3.082677,12.235039z" id="path2517"/>
   <path fill="#000000" stroke-width="0" d="m245.200763,64.386654l0,-0.03189l0,-0.03189l0,-0.01063l0,-0.02126l0,-0.01063l0,-0.02126l0,-0.02126l0,-0.01063l0,-0.02126l-0.106299,-0.02126l0,-0.03189l0,-0.02126l0,-0.02126l0,-0.03189l0,-0.03189l-0.106299,-0.03189l0,-0.03189l0,-0.04252l0,-0.02126l-0.106299,-0.02126l0,-0.02126l0,-0.02126l0,-0.02126l0,-0.03189l0,-0.02126l-0.106299,-0.02126l0,-0.03189l0,-0.02126l0,-0.03189l-0.106299,-0.03189l0,-0.03189l0,-0.03189l0,-0.03189l-0.106299,-0.03189l0,-0.03189l0,-0.03189l-0.106299,-0.04252l0,-0.03189l0,-0.04252l-0.106299,-0.03189l0,-0.04252l-0.106299,-0.04252c-6.590551,-6.67559 -8.291338,-16.678346 -8.291338,-24.778346c0,-9.216142 2.019685,-18.432283 8.503937,-25.054724c0.744094,-0.627165 0.744094,-0.733465 0.744094,-0.892913c0,-0.372047 -0.212598,-0.531496 -0.531496,-0.531496c-0.531496,0 -5.31496,3.603543 -8.397638,10.332283c-2.763779,5.814567 -3.401575,11.692913 -3.401575,16.14685c0,4.124409 0.637795,10.534252 3.507874,16.518897c3.188976,6.505512 7.759842,9.949606 8.291338,9.949606c0.318898,0 0.531496,-0.159449 0.531496,-0.520866z" id="path2519"/>
   <path fill="#000000" stroke-width="0" d="m252.535408,48.548072l0,0.074409l0,0.085039l-0.106299,0.074409l0,0.085039l0,0.170079l-0.106299,0.170079l0,0.170079l0,0.170079l-0.106299,0.170079l0,0.170079l0,0.085039l0,0.074409l-0.106299,0.074409l0,0.074409l0,0.074409l0,0.074409l0,0.06378l0,0.06378l0,0.05315l0,0.06378l0,0.05315l-0.106299,0.04252l0,0.04252l0,0.04252l0,0.03189l0,0.02126c0,0.956693 0.744094,1.435039 1.594488,1.435039c0.637795,0 1.594488,-0.425197 1.913386,-1.488189c0.106299,-0.106299 0.744094,-2.593701 1.062992,-3.911811c0.318898,-1.594488 0.744094,-3.178346 1.169291,-4.772835c0.318898,-1.158661 0.637795,-2.327953 0.850394,-3.550394c0.212598,-0.892913 0.637795,-2.423622 0.744094,-2.63622c0.744094,-1.647638 3.614173,-6.462992 8.610236,-6.462992c2.338583,0 2.870079,1.955905 2.870079,3.709842c0,3.274016 -2.65748,10.055905 -3.507874,12.330708c-0.425197,1.222441 -0.531496,1.849606 -0.531496,2.434252c0,2.487402 1.913386,4.347638 4.358268,4.347638c4.996063,0 6.909449,-7.738582 6.909449,-8.153149c0,-0.531496 -0.425197,-0.531496 -0.637795,-0.531496c-0.531496,0 -0.531496,0.159449 -0.744094,0.946063c-1.062992,3.603543 -2.763779,6.569291 -5.42126,6.569291c-0.850394,0 -1.275591,-0.531496 -1.275591,-1.743307c0,-1.32874 0.531496,-2.593701 0.956693,-3.762992c1.062992,-2.806299 3.295276,-8.631496 3.295276,-11.650393c0,-3.539764 -2.338583,-5.665748 -6.165354,-5.665748c-4.677165,0 -7.334645,3.390945 -8.185039,4.613386c-0.318898,-2.965748 -2.444882,-4.613386 -4.889764,-4.613386c-2.444882,0 -3.507874,2.072835 -4.03937,3.018898c-0.850394,1.807087 -1.594488,4.921653 -1.594488,5.134252c0,0.531496 0.531496,0.531496 0.637795,0.531496c0.531496,0 0.637795,-0.05315 0.956693,-1.211811c0.850394,-3.762992 1.913386,-6.303543 3.826772,-6.303543c1.062992,0 1.700787,0.690945 1.700787,2.434252c0,1.105512 -0.212598,1.690157 -0.850394,4.443307l-3.082677,12.235039z" id="path2521"/>
   <path fill="#000000" stroke-width="0" d="m327.476351,39.491379l0.106299,0l0.106299,0l0.106299,0l0.106299,0l0.106299,-0.01063l0.106299,0l0,-0.01063l0.106299,-0.01063l0.106299,-0.01063l0.106299,-0.01063l0,-0.01063l0.106299,-0.02126l0,-0.02126l0.106299,-0.02126l0.106299,-0.03189l0,-0.02126l0.106299,-0.04252l0,-0.03189l0.106299,-0.04252l0,-0.04252l0.106299,-0.05315l0,-0.02126l0,-0.03189l0,-0.02126l0,-0.03189l0.106299,-0.03189l0,-0.03189l0,-0.03189l0,-0.04252l0,-0.03189l0,-0.03189l0,-0.04252l0,-0.04252l0.106299,-0.04252l0,-0.04252l0,-0.04252l0,-0.04252l0,-0.05315l0,-0.04252c0,-1.062992 -1.062992,-1.062992 -1.807087,-1.062992l-28.807086,0c-0.744094,0 -1.807087,0 -1.807087,1.062992c0,1.052362 1.062992,1.052362 1.807087,1.052362l28.807086,0z" id="path2523"/>
   <path fill="#000000" stroke-width="0" d="m360.110209,17.78508l0,-0.05315l0,-0.06378l0,-0.05315l0,-0.05315l0,-0.05315l0,-0.05315l0,-0.04252l0,-0.05315l0,-0.04252l0,-0.04252l0,-0.04252l0,-0.04252l0,-0.04252l0,-0.04252l0,-0.03189l0,-0.04252l0,-0.03189l0,-0.03189l0,-0.06378l0,-0.05315l0,-0.05315l0,-0.05315l-0.106299,-0.04252l0,-0.04252l0,-0.04252l0,-0.03189l-0.106299,-0.02126l0,-0.03189l0,-0.02126l-0.106299,-0.02126l0,-0.01063l0,-0.01063l-0.106299,0l0,-0.01063l0,-0.01063l0,0l-0.106299,-0.01063l0,0l0,-0.01063l-0.106299,0l0,0l0,0l-0.106299,-0.01063l0,0l-0.106299,0l0,0l-0.106299,0l0,0l0,-0.01063l-0.106299,0l0,0l-0.106299,0c-3.295276,3.390945 -7.972441,3.390945 -9.673228,3.390945l0,1.647638c1.062992,0 4.251968,0 7.015748,-1.38189l0,27.435826c0,1.902756 -0.212598,2.540551 -4.996063,2.540551l-1.700787,0l0,1.637008c1.913386,-0.159449 6.484252,-0.159449 8.610236,-0.159449c2.125984,0 6.69685,0 8.610236,0.159449l0,-1.637008l-1.700787,0c-4.783464,0 -4.996063,-0.584646 -4.996063,-2.540551l0,-29.710629z" id="path2525"/>
   <path fill="#000000" stroke-width="0" d="m386.472413,38.439017l0,-0.393307l0,-0.414567l0,-0.414567l0,-0.435827l-0.106299,-0.892913l0,-0.935433l-0.106299,-0.977953l-0.106299,-0.999213l-0.212598,-1.041732l-0.106299,-1.062992l-0.212598,-1.084252l-0.212598,-1.105512l-0.318898,-1.116142l-0.318898,-1.126772l-0.425197,-1.126772l-0.425197,-1.137402l-0.212598,-0.563386l-0.212598,-0.574016l-0.212598,-0.563386l-0.318898,-0.563386c-3.188976,-6.505512 -7.759842,-9.949606 -8.291338,-9.949606c-0.318898,0 -0.531496,0.212598 -0.531496,0.531496c0,0.159449 0,0.265748 1.062992,1.222441c5.208661,5.229921 8.185039,13.659448 8.185039,24.725196c0,9.056693 -1.913386,18.368503 -8.503937,25.044094c-0.744094,0.637795 -0.744094,0.733465 -0.744094,0.903543c0,0.308268 0.212598,0.520866 0.531496,0.520866c0.531496,0 5.31496,-3.592913 8.503937,-10.321653c2.65748,-5.825197 3.295276,-11.703543 3.295276,-16.14685z" id="path2527"/>
   <polyline fill="#000000" fill-rule="nonzero" stroke-width="0" points="195.77163696289062,76.12210083007812 391.78741455078125,76.12210083007812 391.78741455078125,73.95361328125 195.77163696289062,73.95361328125 " id="polyline2529"/>
   <path fill="#000000" stroke-width="0" d="m304.622021,114.74059l-1.38189,0c-0.212598,1.594488 -0.637795,3.922441 -1.169291,4.719685c-0.318898,0.414567 -3.826772,0.414567 -4.996063,0.414567l-9.566929,0l5.633858,-5.44252c8.291338,-7.313386 11.480315,-10.172834 11.480315,-15.466535c0,-6.037795 -4.783464,-10.279134 -11.267716,-10.279134c-5.952756,0 -9.885827,4.879134 -9.885827,9.588189c0,2.965748 2.65748,2.965748 2.763779,2.965748c0.956693,0 2.763779,-0.637795 2.763779,-2.806299c0,-1.37126 -0.956693,-2.75315 -2.763779,-2.75315c-0.425197,0 -0.531496,0 -0.744094,0.05315c1.275591,-3.444094 4.145669,-5.4 7.228346,-5.4c4.783464,0 7.015748,4.283858 7.015748,8.631496c0,4.230709 -2.65748,8.418897 -5.527559,11.703543l-10.204724,11.331496c-0.531496,0.574016 -0.531496,0.680315 -0.531496,1.955905l19.665354,0l1.488189,-9.216142z" id="path2531"/>
   <rect opacity="0" stroke-linecap="null" stroke-linejoin="null" stroke-dasharray="null" stroke="1" fill="black" id="math_cursor" height="10" width="10" y="61.5" x="20.255556"/>
  </g>
 </g>
</svg>